<svg width="478" height="117" viewBox="0 0 478 117" fill="none" xmlns="http://www.w3.org/2000/svg">
<path d="M59.832 61.304C58.1253 62.584 56.3333 63.5227 54.456 64.12C52.6213 64.6747 50.7867 64.824 48.952 64.568C47.1173 64.312 45.5387 63.5227 44.216 62.2C43.0213 65.9973 42.2107 69.752 41.784 73.464C41.6133 74.1467 41.3147 74.7653 40.888 75.32C40.12 77.5813 38.4347 79.096 35.832 79.864C33.272 80.5893 30.8827 80.4613 28.664 79.48C27.64 79.0107 26.7867 78.328 26.104 77.432C25.4213 76.536 25.08 75.448 25.08 74.168C28.024 63.9707 30.8613 55.608 33.592 49.08C34.1893 47.7147 34.6587 46.6053 35 45.752C35.384 44.8987 35.7253 44.1733 36.024 43.576C36.3227 42.9787 36.5787 42.4667 36.792 42.04C37.048 41.5707 37.3467 41.0587 37.688 40.504C38.456 39.224 39.3307 37.7307 40.312 36.024C41.336 34.2747 42.1893 32.9733 42.872 32.12C43.5973 31.2667 44.344 30.5413 45.112 29.944C45.9227 29.304 46.7973 28.7067 47.736 28.152C48.7173 27.5973 49.9333 26.872 51.384 25.976C52.8347 25.08 54.3707 24.5467 55.992 24.376C57.656 24.1627 59.2347 24.2907 60.728 24.76C63.8853 25.7413 66.2107 27.9387 67.704 31.352C68.984 34.5093 69.1973 38.7547 68.344 44.088C67.0213 52.2373 64.184 57.976 59.832 61.304ZM46.456 55.608C49.9547 54.84 52.3867 52.5573 53.752 48.76C54.904 45.56 55.1387 41.9333 54.456 37.88C53.4747 39.544 52.5787 41.272 51.768 43.064C51 44.856 50.296 46.456 49.656 47.864C48.248 51.0213 47.1813 53.6027 46.456 55.608ZM95.1245 47.544L95.3805 47.608C95.4658 47.608 95.5085 47.6293 95.5085 47.672C96.6178 47.2453 97.5352 47.5653 98.2605 48.632C98.7298 49.3573 99.0925 50.4667 99.3485 51.96C99.4338 54.008 99.2205 56.8453 98.7085 60.472C97.7272 67.8107 97.1938 72.184 97.1085 73.592C97.1938 75.0853 96.2765 76.1093 94.3565 76.664C92.6925 77.176 91.0285 77.1547 89.3645 76.6C87.6152 76.0027 86.8898 75.0853 87.1885 73.848C86.8472 74.488 86.5058 74.936 86.1645 75.192C85.8232 75.4907 85.1405 75.8747 84.1165 76.344C83.1352 76.856 81.7272 77.2613 79.8925 77.56C78.0578 77.9013 76.2232 77.9867 74.3885 77.816C72.5538 77.688 70.8685 77.24 69.3325 76.472C67.8392 75.7467 66.8365 74.5947 66.3245 73.016C65.3432 69.944 65.4712 66.04 66.7085 61.304C67.5618 58.1893 69.0978 55.4373 71.3165 53.048C73.8765 50.3173 76.7778 48.056 80.0205 46.264C82.4525 44.9413 84.7992 44.152 87.0605 43.896C87.8285 43.8107 88.4898 43.832 89.0445 43.96C89.6418 44.088 90.2605 44.216 90.9005 44.344C91.5832 44.472 92.2232 44.664 92.8205 44.92C94.3565 45.56 95.1245 46.4347 95.1245 47.544ZM83.2845 64.504C83.5832 63.9067 83.8178 63.16 83.9885 62.264C84.2018 61.368 84.4792 60.3867 84.8205 59.32C81.3645 60.728 78.7192 62.456 76.8845 64.504C74.8792 66.7653 75.0072 68.3227 77.2685 69.176C79.2312 69.688 80.6605 69.368 81.5565 68.216C81.9405 67.704 82.2818 67.064 82.5805 66.296C82.8792 65.528 83.2418 64.7387 83.6685 63.928C83.5405 64.1413 83.4125 64.3333 83.2845 64.504ZM126.365 43.576C128.029 43.7893 129.138 44.3867 129.693 45.368C130.29 46.3067 130.525 47.3307 130.397 48.44C130.269 49.5067 129.864 50.488 129.181 51.384C128.541 52.2373 127.816 52.6853 127.005 52.728C126.706 53.624 126.237 54.2427 125.597 54.584C124.957 54.9253 124.253 55.16 123.485 55.288C122.717 55.416 121.906 55.5653 121.053 55.736C120.242 55.864 119.474 56.2267 118.749 56.824C118.024 57.4213 117.405 58.0187 116.893 58.616C116.424 59.1707 116.04 59.7253 115.741 60.28C115.229 61.2187 114.781 62.3707 114.397 63.736C114.312 64.6747 114.76 65.5493 115.741 66.36C116.893 67.256 118.152 67.6613 119.517 67.576C120.882 67.448 121.97 67.512 122.781 67.768C123.634 67.9813 124.274 68.3013 124.701 68.728C125.64 69.7093 125.554 70.84 124.445 72.12C122.312 75.5333 118.728 77.56 113.693 78.2C112.2 78.4133 110.706 78.456 109.213 78.328C107.72 78.2427 106.269 77.688 104.861 76.664C103.453 75.64 102.344 74.2533 101.533 72.504C99.741 68.4933 99.8903 63.8213 101.981 58.488C103.986 53.496 106.994 49.656 111.005 46.968C115.4 43.9813 120.52 42.8507 126.365 43.576ZM141.233 24.76C142.172 23.608 143.302 22.968 144.625 22.84C145.948 22.712 147.228 22.9253 148.465 23.48C149.702 23.992 150.748 24.8027 151.601 25.912C152.497 26.9787 152.988 28.1733 153.073 29.496L152.497 31.352C152.966 31.9067 153.372 32.3547 153.713 32.696C154.097 33.0373 154.31 33.5707 154.353 34.296C154.609 34.8933 153.542 37.2613 151.153 41.4C150.172 43.1067 149.126 44.8987 148.017 46.776C146.95 48.6107 146.076 50.2533 145.393 51.704C145.905 51.576 146.417 51.4693 146.929 51.384C147.441 51.2987 147.953 51.192 148.465 51.064C151.622 50.2533 153.756 49.848 154.865 49.848C155.974 49.8053 156.892 49.912 157.617 50.168C159.58 50.936 160.604 52.1307 160.689 53.752C160.092 55.16 157.852 57.1227 153.969 59.64C153.073 60.1947 152.348 60.664 151.793 61.048L146.225 65.016C145.926 65.4853 145.713 65.9333 145.585 66.36V66.424C145.67 66.6373 146.204 66.936 147.185 67.32C148.209 67.704 149.084 68.0453 149.809 68.344C151.516 69.112 153.03 70.1573 154.353 71.48C154.78 71.9493 155.057 72.6533 155.185 73.592C155.313 74.488 155.164 75.32 154.737 76.088C154.353 76.856 153.649 77.4107 152.625 77.752C151.601 78.0933 150.172 77.944 148.337 77.304C145.649 76.1093 142.47 73.4427 138.801 69.304C138.374 70.7973 137.948 72.2693 137.521 73.72C137.137 75.128 136.71 76.5787 136.241 78.072C135.601 79.5227 134.108 80.2053 131.761 80.12C130.822 80.12 129.969 79.928 129.201 79.544C128.476 79.16 128.049 78.648 127.921 78.008C127.58 77.0693 127.409 76.3653 127.409 75.896C127.409 75.4693 127.516 74.9573 127.729 74.36C128.71 71.8853 129.329 69.9227 129.585 68.472C129.841 66.9787 130.012 66.104 130.097 65.848C128.902 65.08 128.198 63.864 127.985 62.2C127.729 60.5787 128.113 59.128 129.137 57.848C130.502 57.336 131.484 56.952 132.081 56.696C132.337 55.0747 132.764 53.3253 133.361 51.448C134.428 48.0773 135.238 45.1547 135.793 42.68C136.39 40.2053 137.222 37.4107 138.289 34.296C139.398 31.1387 140.38 27.96 141.233 24.76ZM188.375 47.544L188.631 47.608C188.716 47.608 188.759 47.6293 188.759 47.672C189.868 47.2453 190.785 47.5653 191.511 48.632C191.98 49.3573 192.343 50.4667 192.599 51.96C192.684 54.008 192.471 56.8453 191.958 60.472C190.977 67.8107 190.444 72.184 190.359 73.592C190.444 75.0853 189.527 76.1093 187.607 76.664C185.943 77.176 184.279 77.1547 182.615 76.6C180.865 76.0027 180.14 75.0853 180.439 73.848C180.097 74.488 179.756 74.936 179.415 75.192C179.073 75.4907 178.391 75.8747 177.367 76.344C176.385 76.856 174.977 77.2613 173.143 77.56C171.308 77.9013 169.473 77.9867 167.639 77.816C165.804 77.688 164.119 77.24 162.583 76.472C161.089 75.7467 160.087 74.5947 159.575 73.016C158.593 69.944 158.721 66.04 159.959 61.304C160.812 58.1893 162.348 55.4373 164.567 53.048C167.127 50.3173 170.028 48.056 173.271 46.264C175.703 44.9413 178.049 44.152 180.311 43.896C181.079 43.8107 181.74 43.832 182.295 43.96C182.892 44.088 183.511 44.216 184.151 44.344C184.833 44.472 185.473 44.664 186.071 44.92C187.607 45.56 188.375 46.4347 188.375 47.544ZM176.535 64.504C176.833 63.9067 177.068 63.16 177.239 62.264C177.452 61.368 177.729 60.3867 178.071 59.32C174.615 60.728 171.969 62.456 170.135 64.504C168.129 66.7653 168.257 68.3227 170.519 69.176C172.481 69.688 173.911 69.368 174.807 68.216C175.191 67.704 175.532 67.064 175.831 66.296C176.129 65.528 176.492 64.7387 176.919 63.928C176.791 64.1413 176.663 64.3333 176.535 64.504ZM220.255 49.464C220.98 48.1413 221.94 47.48 223.135 47.48C224.97 48.504 226.122 50.168 226.591 52.472C227.06 54.776 226.548 56.8453 225.055 58.68C225.012 58.7227 225.034 59.0853 225.119 59.768C225.887 64.0347 225.61 68.472 224.287 73.08C223.818 74.616 223.263 76.0453 222.623 77.368C222.026 78.6907 221.258 80.3547 220.319 82.36C219.423 84.3653 218.143 86.3493 216.479 88.312C214.815 90.2747 212.938 91.832 210.847 92.984C206.452 95.4587 201.546 95.992 196.127 94.584C194.164 93.816 192.799 92.92 192.031 91.896C191.05 90.6587 190.708 89.336 191.007 87.928C191.306 86.1787 192.33 85.2187 194.079 85.048C194.932 84.9627 195.999 85.2827 197.279 86.008C198.73 86.3067 199.903 86.2853 200.799 85.944C201.695 85.6027 202.399 85.2827 202.911 84.984C203.466 84.728 204.148 84.3867 204.959 83.96C206.367 83.2347 207.967 81.5707 209.759 78.968C210.74 77.6027 211.722 75.768 212.703 73.464C211.124 75.4693 208.607 76.4507 205.151 76.408C204.17 76.3653 203.06 76.3227 201.823 76.28C200.628 76.2373 199.54 75.832 198.559 75.064C197.578 74.296 196.788 73.2933 196.191 72.056C195.594 70.8187 195.188 69.4107 194.975 67.832C194.804 66.2107 194.804 64.568 194.975 62.904C195.658 57.1013 198.09 52.5147 202.271 49.144C205.13 46.7973 208.202 45.5387 211.487 45.368C213.066 45.2827 214.559 45.4533 215.967 45.88C217.674 46.52 219.103 47.7147 220.255 49.464ZM212.447 63.992C212.447 63.864 212.468 63.7573 212.511 63.672C212.298 63.5867 212.084 63.5227 211.871 63.48C211.658 63.3947 211.274 63.2667 210.719 63.096C210.164 62.9253 209.418 63.032 208.479 63.416C207.54 63.7573 206.708 64.248 205.983 64.888C205.3 65.4853 204.746 66.1253 204.319 66.808C203.935 67.4907 203.871 68.0667 204.127 68.536C204.426 69.0053 204.938 69.1973 205.663 69.112C206.388 68.984 207.178 68.664 208.031 68.152C209.908 67 211.38 65.6133 212.447 63.992ZM250.399 65.528C249.588 65.912 248.799 66.2107 248.031 66.424C247.263 66.6373 246.367 66.8507 245.343 67.064C242.655 67.6187 240.713 67.9387 239.519 68.024C239.647 68.4507 240.287 68.9627 241.439 69.56C242.207 69.688 243.039 69.5813 243.935 69.24C244.873 68.856 245.833 68.5147 246.815 68.216C247.839 67.8747 248.82 67.6827 249.759 67.64C250.74 67.5973 251.657 67.96 252.511 68.728C252.852 69.496 253.129 69.944 253.343 70.072C253.556 70.2 253.748 70.264 253.919 70.264C254.089 70.264 254.281 70.328 254.495 70.456C254.708 70.584 255.007 71.0747 255.391 71.928C255.817 72.7813 255.711 73.592 255.071 74.36C254.473 75.128 253.535 75.7893 252.255 76.344C250.975 76.8987 249.481 77.3467 247.775 77.688C246.068 78.0293 244.361 78.264 242.655 78.392C238.815 78.6907 235.892 78.392 233.887 77.496C230.985 76.5147 229.108 74.5733 228.255 71.672C227.145 67.832 227.764 63.352 230.111 58.232C231.177 55.8427 232.863 53.2827 235.167 50.552C237.172 48.1627 239.412 46.4347 241.887 45.368C244.745 44.1307 247.732 43.5547 250.847 43.64C254.175 43.7253 256.479 45.176 257.759 47.992C258.399 49.4853 258.527 51.576 258.143 54.264C257.46 57.7627 256.564 60.2373 255.455 61.688C254.345 63.096 252.66 64.376 250.399 65.528ZM246.687 55.416C244.425 54.9467 242.655 56.2267 241.375 59.256C240.991 60.0667 240.692 60.92 240.479 61.816C241.929 61.9867 243.465 61.176 245.087 59.384C245.684 58.6587 246.132 57.9333 246.431 57.208C246.729 56.44 246.815 55.8427 246.687 55.416ZM282.106 76.536C280.442 77.9013 278.458 78.9253 276.154 79.608C273.892 80.3333 271.61 80.7173 269.306 80.76C267.002 80.8027 264.847 80.5253 262.842 79.928C260.836 79.3307 259.258 78.392 258.105 77.112C256.74 75.6613 256.271 74.2107 256.697 72.76C256.911 72.1627 257.295 71.6933 257.849 71.352C258.361 71.0107 259.001 70.9253 259.77 71.096C260.282 71.1387 260.644 71.0107 260.858 70.712C261.114 70.3707 261.327 70.008 261.498 69.624C261.668 69.1973 261.86 68.8133 262.074 68.472C262.287 68.088 262.628 67.896 263.098 67.896C270.607 68.1093 274.511 67.448 274.81 65.912C274.298 65.4427 273.658 65.0373 272.89 64.696C272.164 64.3547 271.418 64.0133 270.65 63.672C268.772 62.8187 267.514 61.88 266.874 60.856C266.063 60.4293 265.444 59.4053 265.018 57.784C264.804 57.0587 264.698 56.312 264.698 55.544C264.698 54.776 264.826 54.072 265.082 53.432C264.954 51.768 265.978 49.9333 268.154 47.928C268.751 47.3733 269.498 46.776 270.394 46.136C271.29 45.496 272.634 44.8773 274.426 44.28C276.218 43.6827 277.988 43.256 279.738 43C281.53 42.7013 283.13 42.5947 284.538 42.68C285.988 42.7653 287.012 43.1067 287.61 43.704C288.25 44.3013 288.74 45.048 289.082 45.944C289.466 46.84 289.594 47.7147 289.466 48.568C289.124 50.488 287.546 51.8107 284.73 52.536C281.188 53.048 279.482 53.5173 279.61 53.944C279.61 54.0293 279.46 54.136 279.162 54.264C282.447 56.5253 284.73 58.744 286.01 60.92C287.759 63.9067 288.015 67.2347 286.778 70.904C286.991 72.0987 285.924 73.592 283.578 75.384C283.023 75.8107 282.532 76.1947 282.106 76.536Z" fill="white"/>
<path d="M364 65H451V94.1429H407.5V99H388.167V94.1429H364V65ZM368.833 89.2857H378.5V74.7143H383.333V89.2857H388.167V69.8571H368.833V89.2857ZM393 69.8571V94.1429H402.667V89.2857H412.333V69.8571H393ZM402.667 74.7143H407.5V84.4286H402.667V74.7143ZM417.167 69.8571V89.2857H426.833V74.7143H431.667V89.2857H436.5V74.7143H441.333V89.2857H446.167V69.8571H417.167Z" fill="#CB3837"/>
<path d="M368.833 89.2857H378.5V74.7143H383.333V89.2857H388.167V69.8571H368.833V89.2857Z" fill="white"/>
<path d="M393 69.8571V94.1429H402.667V89.2857H412.333V69.8571H393ZM407.5 84.4286H402.667V74.7143H407.5V84.4286Z" fill="white"/>
<path d="M417.167 69.8571V89.2857H426.833V74.7143H431.667V89.2857H436.5V74.7143H441.333V89.2857H446.167V69.8571H417.167Z" fill="white"/>
<path d="M310.28 79.008C310.888 78.8 311.816 78.656 313.064 78.576C313.352 78.736 313.464 79.064 313.4 79.56C313.352 80.056 313.168 80.432 312.848 80.688C312.464 81.264 312.056 81.656 311.624 81.864C311.384 81.976 311.088 82.08 310.736 82.176C310.4 82.256 309.984 82.368 309.488 82.512C309.168 83.408 308.808 84.624 308.408 86.16C308.024 87.696 307.752 88.72 307.592 89.232C307.224 90.416 306.96 91.032 306.8 91.08C306.432 91.656 306.024 92.016 305.576 92.16C305.144 92.304 304.744 92.304 304.376 92.16C304.008 92.032 303.72 91.792 303.512 91.44C303.32 91.104 303.28 90.744 303.392 90.36C303.344 89.96 303.416 88.84 303.608 87C303.8 85.16 303.896 84.104 303.896 83.832C303.832 83.768 303.752 83.728 303.656 83.712C303.56 83.696 303.496 83.656 303.464 83.592C303.32 83.544 303.208 83.456 303.128 83.328C302.984 83.104 302.832 82.944 302.672 82.848C302.384 82.88 302.152 82.8 301.976 82.608C301.784 82.4 301.688 82.16 301.688 81.888C301.688 81.616 301.784 81.336 301.976 81.048C302.168 80.76 302.496 80.536 302.96 80.376L305.408 79.608C305.6 78.312 306.208 76.84 307.232 75.192C307.472 74.792 307.728 74.368 308 73.92C308.288 73.456 308.68 73.032 309.176 72.648C309.672 72.248 310.184 71.944 310.712 71.736C311.256 71.512 311.8 71.376 312.344 71.328C312.904 71.28 313.416 71.288 313.88 71.352C314.856 71.48 315.504 71.808 315.824 72.336C316.208 73.008 316.376 73.616 316.328 74.16C316.296 74.688 316.08 75.088 315.68 75.36C315.04 75.776 314.496 75.84 314.048 75.552C313.872 75.456 313.744 75.296 313.664 75.072C313.584 74.848 313.432 74.768 313.208 74.832C312.984 74.896 312.728 75.048 312.44 75.288C312.152 75.512 311.856 75.8 311.552 76.152C311.264 76.504 311.008 76.864 310.784 77.232C310.224 78.08 310.056 78.672 310.28 79.008ZM314.949 80.064C315.173 79.488 315.485 79.056 315.885 78.768C316.301 78.464 316.693 78.28 317.061 78.216C317.445 78.136 317.757 78.176 317.997 78.336C318.253 78.496 318.341 78.744 318.261 79.08C318.565 78.776 319.005 78.496 319.581 78.24C320.157 77.984 320.613 77.808 320.949 77.712C321.285 77.616 321.573 77.568 321.813 77.568C322.341 77.6 322.493 77.888 322.269 78.432C322.541 78.48 322.741 78.656 322.869 78.96C322.997 79.264 323.013 79.6 322.917 79.968C322.821 80.336 322.605 80.696 322.269 81.048C321.933 81.4 321.477 81.64 320.901 81.768C320.341 81.896 319.869 82.192 319.485 82.656C319.117 83.104 318.789 83.664 318.501 84.336C318.021 85.472 317.589 87.08 317.205 89.16C317.077 89.912 316.557 90.544 315.645 91.056C314.781 91.552 313.989 91.696 313.269 91.488C312.453 91.264 312.093 90.664 312.189 89.688C312.221 89 312.429 88.088 312.813 86.952C313.197 85.8 313.493 84.936 313.701 84.36C313.909 83.768 314.053 83.32 314.133 83.016L314.949 80.064ZM325.352 79.752C325.688 79.512 326.104 79.456 326.6 79.584C326.696 79.6 326.792 79.608 326.888 79.608C327.24 78.888 327.848 78.512 328.712 78.48C328.936 78.464 329.248 78.424 329.648 78.36C330.048 78.296 330.528 78.312 331.088 78.408C331.664 78.504 332.168 78.672 332.6 78.912C333.544 79.424 334.112 80.16 334.304 81.12C334.688 82.528 334.632 84.064 334.136 85.728C333.608 87.568 332.712 89.04 331.448 90.144C330.872 90.656 330.264 90.976 329.624 91.104C328.984 91.248 328.408 91.328 327.896 91.344C327.384 91.36 326.912 91.36 326.48 91.344C326.064 91.344 325.656 91.304 325.256 91.224C324.392 91.048 323.68 90.64 323.12 90C322.464 89.28 322.184 88.16 322.28 86.64C322.344 85.296 322.68 83.944 323.288 82.584C323.912 81.208 324.6 80.264 325.352 79.752ZM329.576 84.576C329.176 84.704 328.8 84.76 328.448 84.744C328.272 84.92 328.112 85.112 327.968 85.32C327.84 85.512 327.664 85.696 327.44 85.872C327.216 86.032 327.104 86.096 327.104 86.064C326.832 86.448 326.608 86.848 326.432 87.264C326.256 87.664 326.256 88.072 326.432 88.488C327.072 88.552 327.544 88.536 327.848 88.44C328.152 88.344 328.432 88.16 328.688 87.888C328.96 87.616 329.168 87.296 329.312 86.928C329.6 86.24 329.688 85.456 329.576 84.576ZM337.914 79.56C337.946 79.256 338.138 79.008 338.49 78.816C338.842 78.624 339.234 78.528 339.666 78.528C340.098 78.528 340.514 78.632 340.914 78.84C341.33 79.032 341.61 79.368 341.754 79.848C343.114 78.664 344.354 78.208 345.474 78.48C345.858 78.56 346.186 78.784 346.458 79.152C347.274 78.368 348.178 77.856 349.17 77.616C350.418 77.568 351.314 77.856 351.858 78.48C351.938 78.56 352.018 78.648 352.098 78.744C352.322 78.984 352.45 79.144 352.482 79.224C352.77 79.672 352.85 80.704 352.722 82.32C352.546 84.416 352.146 86.52 351.522 88.632C351.186 89.704 350.882 90.256 350.61 90.288C350.45 90.32 350.298 90.32 350.154 90.288C350.026 90.256 349.906 90.232 349.794 90.216C349.698 90.216 349.642 90.312 349.626 90.504C349.306 90.92 348.818 91.128 348.162 91.128C347.522 91.128 346.978 90.928 346.53 90.528C346.034 90.112 345.858 89.624 346.002 89.064C346.162 88.488 346.338 87.904 346.53 87.312C346.722 86.704 346.93 86.08 347.154 85.44C347.538 84.32 347.962 83.152 348.426 81.936C348.09 82.32 347.634 83.048 347.058 84.12C346.482 85.176 346.122 85.808 345.978 86.016C345.706 86.56 345.482 86.992 345.306 87.312C345.13 87.616 344.89 87.864 344.586 88.056C344.298 88.232 344.026 88.344 343.77 88.392C343.53 88.44 343.298 88.448 343.074 88.416C342.546 88.336 342.17 88.112 341.946 87.744C341.898 87.616 341.85 87.488 341.802 87.36C341.754 87.232 341.714 87.056 341.682 86.832C341.634 86.336 341.698 85.528 341.874 84.408L341.826 84.48C342.018 84.288 342.082 84.24 342.018 84.336C341.378 85.248 340.994 85.832 340.866 86.088C340.738 86.344 340.602 86.632 340.458 86.952C340.314 87.256 340.146 87.616 339.954 88.032C339.762 88.432 339.61 88.792 339.498 89.112C339.386 89.432 339.25 89.744 339.09 90.048C338.37 91.296 337.106 91.8 335.298 91.56C334.914 91.512 334.586 91.416 334.314 91.272C334.042 91.144 333.93 90.944 333.978 90.672C334.106 90.032 334.402 88.968 334.866 87.48C335.778 84.536 336.322 82.64 336.498 81.792C336.61 81.504 336.706 81.208 336.786 80.904C336.882 80.6 336.978 80.336 337.074 80.112C337.266 79.584 337.546 79.4 337.914 79.56ZM346.242 85.488V85.536C346.274 85.472 346.274 85.456 346.242 85.488Z" fill="white"/>
</svg>
